<svg xmlns="http://www.w3.org/2000/svg" width="54.844" height="48.87" viewBox="0 0 54.844 48.87"><g transform="translate(-5.187 -9.144)"><path d="M59.243,13.031a3.7,3.7,0,0,0-3.027-3.105A100.132,100.132,0,0,0,42.595,9.15a100.123,100.123,0,0,0-13.622.776,3.7,3.7,0,0,0-3.027,3.1c-.219,1.349-.374,2.655-.484,3.871a104.7,104.7,0,0,1,14.7.9,6.328,6.328,0,0,1,5.216,5.319,55.922,55.922,0,0,1,.873,11.939c0,.6,0,1.551-.034,2.737L53.7,43.855a.952.952,0,0,0,1.332-.164.89.89,0,0,0,.063-.953L53.1,37.293c1.114-.1,2.181-.226,3.117-.386a3.7,3.7,0,0,0,3.027-3.1A64.9,64.9,0,0,0,60,23.417a48.009,48.009,0,0,0-.757-10.386Z" fill="#154273"/><path d="M39.782,20.016c-5.062-.866-13.5-.866-15.187-.866s-10.125,0-15.187.866a4.119,4.119,0,0,0-3.375,3.462,72.359,72.359,0,0,0-.844,11.578,72.355,72.355,0,0,0,.844,11.578A4.12,4.12,0,0,0,9.408,50.1c.663.113,1.386.21,2.142.3l3.762-5.22c.2-.286.386-.077.386-.077L12.44,56.6h-.01l-.052.185a1.052,1.052,0,0,0,1.6,1.063L25.23,50.96a106.492,106.492,0,0,0,14.552-.86,4.12,4.12,0,0,0,3.375-3.462A72.338,72.338,0,0,0,44,35.056a53.521,53.521,0,0,0-.844-11.578,4.119,4.119,0,0,0-3.374-3.462ZM15.5,38.075A2.575,2.575,0,1,1,18.075,35.5,2.575,2.575,0,0,1,15.5,38.075Zm9,0A2.575,2.575,0,1,1,27.075,35.5,2.575,2.575,0,0,1,24.5,38.075Zm9,0A2.575,2.575,0,1,1,36.075,35.5,2.575,2.575,0,0,1,33.5,38.075Z" fill="#154273"/></g></svg>