<svg xmlns="http://www.w3.org/2000/svg" width="46" height="46" viewBox="0 0 46 46"><g transform="translate(0)"><path d="M42.714,32H3.275A3.3,3.3,0,0,0,0,35.317V74.683A3.3,3.3,0,0,0,3.275,78H42.714A3.309,3.309,0,0,0,46,74.683V35.317A3.309,3.309,0,0,0,42.714,32ZM13.9,71.429H7.085V49.476h6.828V71.429ZM10.494,46.478a3.953,3.953,0,1,1,3.953-3.953A3.953,3.953,0,0,1,10.494,46.478ZM39.459,71.429H32.642V60.75c0-2.546-.051-5.822-3.542-5.822-3.553,0-4.1,2.772-4.1,5.637V71.429H18.184V49.476h6.541v3h.092a7.181,7.181,0,0,1,6.458-3.542c6.9,0,8.183,4.549,8.183,10.463Z" transform="translate(0 -32)" fill="#154273"/></g></svg>